<?xml version="1.0" encoding="UTF-8" standalone="no"?>
<!DOCTYPE svg PUBLIC "-//W3C//DTD SVG 1.1//EN" "http://www.w3.org/Graphics/SVG/1.1/DTD/svg11.dtd">
<svg width="100%" height="100%" viewBox="0 0 60 40" version="1.1" xmlns="http://www.w3.org/2000/svg" xmlns:xlink="http://www.w3.org/1999/xlink" xml:space="preserve">
    <g transform="matrix(0.445717,0,0,0.445717,-175.658,-140.162)">
        <path d="M468.768,370.128C471.59,370.128 472.174,369.933 472.369,369.252C472.564,368.57 469.06,368.084 467.697,368.084C466.335,368.084 465.588,368.634 465.653,369.154C465.751,369.933 465.945,370.128 468.768,370.128ZM469.254,366.721C470.325,366.819 471.396,366.624 472.466,366.332C473.537,366.04 472.077,365.553 471.104,365.553C470.13,365.553 468.768,365.261 467.697,365.261C466.627,365.261 466.335,365.456 466.335,365.943C466.335,366.526 468.184,366.624 469.254,366.721ZM468.476,360.005C468.573,360.395 469.546,360.882 471.006,361.076C472.466,361.271 472.466,360.103 472.466,360.103C472.466,360.103 470.909,358.935 469.741,358.935C468.573,358.935 468.401,359.707 468.476,360.005ZM473.634,359.422C473.576,360.418 473.447,361.84 473.353,363.322C473.242,362.967 472.496,362.702 471.396,362.633C469.838,362.536 467.989,362.536 467.211,362.439C466.432,362.341 465.653,362.536 465.653,363.12C465.653,364.191 467.794,363.704 469.741,363.801C471.688,363.899 472.466,364.385 473.147,363.801C473.245,363.718 473.302,363.638 473.339,363.559C473.284,364.462 473.245,365.381 473.245,366.234C473.245,368.57 473.926,370.906 472.953,370.906C471.98,370.906 470.033,370.517 468.573,370.517C467.113,370.517 464.68,371.004 464.68,369.836C464.68,368.668 464.875,358.643 464.875,358.643C464.875,358.254 464.777,357.475 465.751,357.475C466.724,357.475 471.201,357.864 472.174,357.864C473.147,357.864 473.732,357.767 473.634,359.422ZM471.882,355.626C470.325,355.626 467.016,355.431 464.583,355.237C462.15,355.042 463.22,357.962 463.123,360.784C463.123,360.784 462.636,368.668 462.928,371.198C463.22,373.729 464.193,372.269 467.6,372.561C471.006,372.853 473.05,373.339 474.413,373.242C475.775,373.145 475.678,369.933 475.581,367.305C475.483,364.677 475.581,360.492 475.775,358.059C475.97,355.626 473.44,355.626 471.882,355.626ZM480.252,343.947C481.128,344.044 481.518,343.168 481.518,342.681C481.518,342.195 480.298,341.565 479.863,342C479.279,342.584 479.376,343.849 480.252,343.947ZM476.846,343.947C477.722,343.849 477.625,343.265 477.235,342.487C476.846,341.708 476.262,341.708 475.483,342C475.483,342 475.094,343.071 475.191,343.363C475.289,343.655 475.97,344.044 476.846,343.947ZM476.067,345.99C476.651,345.601 476.262,344.823 475.191,344.336C474.121,343.849 473.66,344.523 473.829,345.115C474.218,346.477 475.483,346.38 476.067,345.99ZM464.096,343.947C466.043,344.076 465.394,343.038 465.394,342.389C465.394,341.74 463.447,341.74 462.02,341.74C460.592,341.74 460.333,342 460.333,343.038C460.333,343.817 462.15,343.817 464.096,343.947ZM483.951,366.786C483.561,367.694 481.485,368.992 480.447,370.29C479.409,371.587 479.279,371.587 479.02,372.496L478.76,373.404C478.76,373.404 476.294,373.275 476.424,373.793C476.554,374.313 477.462,374.832 479.279,375.481C481.096,376.129 482.523,376.908 482.783,378.076C483.043,379.244 483.561,385.732 483.821,386.771C484.081,387.809 485.119,393 484.34,393.259C483.561,393.518 479.409,394.557 476.294,394.686C473.18,394.816 466.821,394.686 463.707,394.427C460.592,394.167 454.363,394.167 451.379,393.648C448.394,393.129 448.264,393 445.799,393.259C443.333,393.518 441.127,394.557 441.387,393.518C441.646,392.48 444.241,384.305 445.02,382.229C445.799,380.152 445.02,380.282 447.485,378.984C449.951,377.687 452.677,376.648 453.066,376C453.455,375.351 452.936,374.961 451.509,375.61C450.081,376.259 448.005,377.557 446.966,377.946C445.928,378.336 445.02,378.336 444.241,377.427C443.463,376.519 441.127,373.793 440.737,373.275C440.348,372.755 438.531,371.458 439.31,369.641C440.089,367.824 442.035,360.817 442.684,360.038C443.333,359.259 443.073,357.962 445.15,358.74C447.226,359.519 450.341,360.557 451.249,360.557C452.157,360.557 452.677,359.908 451.509,359.13C450.341,358.351 448.264,357.832 445.799,357.183C443.333,356.534 441.646,356.275 440.997,355.496C440.348,354.717 438.921,351.343 438.921,351.343C438.402,350.305 437.104,348.229 438.402,349.008C439.699,349.786 442.035,353.16 443.463,352.641C444.89,352.122 445.799,350.565 447.356,349.527C448.913,348.488 448.913,348.488 450.211,350.305C451.509,352.122 452.287,353.679 453.325,352.511C454.363,351.343 456.699,348.229 457.867,349.656C459.035,351.084 463.447,354.717 464.615,353.809C465.783,352.901 469.676,347.84 470.844,349.267C472.012,350.694 473.569,353.939 475.126,352.901C476.684,351.862 480.317,347.32 481.226,348.229C482.134,349.137 484.081,350.954 484.081,352.122C484.081,353.29 484.34,365.878 483.951,366.786ZM438.142,325.779C438.272,323.832 438.661,322.794 440.608,322.015C442.554,321.237 445.539,320.199 446.577,321.107C447.616,322.015 449.562,328.634 450.989,332.786C452.417,336.939 455.402,346.282 455.142,346.801C454.882,347.32 453.195,348.878 452.677,348.359C452.157,347.84 450.081,344.725 448.394,345.634C446.707,346.542 444.241,348.878 443.333,348.488C443.333,348.488 442.814,345.244 441.905,341.481C440.997,337.718 438.012,327.725 438.142,325.779ZM456.44,341.221C457.089,339.794 457.608,338.237 459.165,338.237C460.722,338.237 466.821,338.496 468.638,338.756C470.455,339.015 471.493,338.885 470.844,339.534C470.195,340.183 468.249,341.092 468.638,343.557C469.027,346.023 469.936,345.634 468.379,347.061C466.821,348.488 465.783,351.084 464.096,350.046C462.409,349.008 458.256,345.504 457.089,345.893C457.089,345.893 455.791,342.649 456.44,341.221ZM458.775,328.374C459.424,328.115 459.814,327.855 460.203,329.412C460.592,330.97 460.203,331.748 461.631,331.748C463.058,331.748 463.966,332.267 463.966,329.931C463.966,327.596 463.058,322.664 463.966,322.664C464.875,322.664 467.47,321.886 466.821,323.703C466.172,325.519 465.394,329.542 466.302,329.672C467.211,329.802 470.195,328.634 469.936,329.802C469.676,330.97 469.417,335.252 468.638,335.252C467.859,335.252 459.295,335.122 459.295,335.122C459.295,335.122 458.127,328.634 458.775,328.374ZM474.478,340.962C477.592,339.145 480.317,340.183 481.355,340.443C482.394,340.702 483.302,341.611 483.302,342.908C483.302,344.206 483.302,346.153 482.394,345.634C481.485,345.115 481.096,344.206 479.279,345.504C477.462,346.801 475.386,349.527 474.478,348.878C473.569,348.229 471.623,346.153 471.233,345.763C470.494,345.023 471.363,342.779 474.478,340.962ZM480.577,331.489C480.966,330.061 481.875,329.412 480.836,328.763C479.798,328.115 477.852,326.428 479.15,325.26C480.447,324.092 480.836,324.741 481.615,325.649C482.394,326.557 483.043,325.26 483.951,324.87C484.859,324.481 488.104,325 486.806,326.687C485.508,328.374 482.913,328.115 482.523,329.153C482.134,330.191 480.966,334.603 480.707,336.03C480.447,337.458 480.317,337.588 479.798,337.588C479.279,337.588 478.76,337.198 478.76,337.198C478.76,337.198 480.187,332.916 480.577,331.489ZM486.416,344.466C487.065,340.443 482.523,338.107 482.523,338.107L484.47,330.71C484.47,330.71 485.119,330.71 486.287,329.802C487.455,328.893 489.272,326.817 488.104,323.962C486.936,321.107 481.875,322.794 481.875,322.794C479.798,320.718 477.203,322.405 476.684,325.389C476.165,328.374 479.02,330.451 479.02,330.451L476.943,336.679C476.165,336.809 473.31,337.847 473.31,337.847C473.31,337.847 472.401,336.679 471.493,336.16C470.585,335.641 471.104,334.473 471.233,333.435C471.363,332.397 471.753,329.412 472.142,327.985C472.531,326.557 469.157,326.947 468.508,326.947C467.859,326.947 468.638,323.832 469.157,322.275C469.676,320.718 467.989,320.069 466.951,320.069C465.913,320.069 462.539,320.069 461.89,320.328C461.241,320.588 461.89,327.725 461.89,327.725C461.89,327.725 461.111,326.687 460.982,325.779C460.852,324.87 458.775,325.519 457.218,325.909C455.661,326.298 456.829,327.725 457.089,330.191C457.348,332.657 457.737,335.512 457.737,335.512C457.737,335.512 456.699,335.901 455.921,336.809C455.142,337.718 455.531,339.405 455.531,339.405C455.531,339.405 451.509,326.947 450.6,322.664C449.692,318.382 447.616,317.603 445.28,317.603C442.944,317.603 438.791,319.42 436.066,320.977C433.341,322.535 435.417,327.985 436.974,333.435C438.531,338.885 441.127,346.801 441.127,346.801L440.348,346.542C440.348,346.542 438.661,345.244 436.585,345.893C434.509,346.542 435.677,348.748 436.326,351.343C436.974,353.939 438.012,356.275 439.31,357.443C440.608,358.611 440.089,360.168 439.959,360.946C439.959,360.946 438.402,363.801 437.753,366.656C437.104,369.511 436.585,371.198 436.845,372.496C437.104,373.793 440.737,377.038 442.165,378.854C443.592,380.671 441.257,384.435 439.829,388.977C438.402,393.518 437.883,395.465 438.791,396.633C439.699,397.801 444.241,396.373 447.875,396.244C451.509,396.114 453.585,396.633 459.295,397.152C465.004,397.671 470.844,397.541 474.478,397.541C478.111,397.541 484.729,396.763 486.287,396.114C487.844,395.465 486.676,386.251 486.287,382.618C485.897,378.984 485.508,374.702 484.081,373.404C482.653,372.107 484.081,371.587 485.248,370.16C486.416,368.733 486.806,368.473 486.676,366.007C486.546,363.542 486.936,351.603 487.584,348.748C488.233,345.893 486.416,344.466 486.416,344.466ZM444.631,340.962C445.409,341.74 447.356,340.702 448.653,340.443C449.951,340.183 450.47,339.664 449.821,338.626C449.173,337.588 447.356,338.107 446.188,338.756C445.02,339.405 444.136,340.468 444.631,340.962ZM444.76,332.916C445.928,332.786 446.837,332.137 446.707,331.229C446.577,330.321 445.669,330.321 444.112,330.84C442.554,331.359 441.629,331.875 442.035,332.397C442.944,333.565 443.592,333.046 444.76,332.916Z"/>
    </g>
</svg>
