<?xml version="1.0" encoding="UTF-8" standalone="no"?>
<!DOCTYPE svg PUBLIC "-//W3C//DTD SVG 1.1//EN" "http://www.w3.org/Graphics/SVG/1.1/DTD/svg11.dtd">
<svg width="100%" height="100%" viewBox="0 0 60 40" version="1.1" xmlns="http://www.w3.org/2000/svg" xmlns:xlink="http://www.w3.org/1999/xlink" xml:space="preserve">
    <g transform="matrix(0.933864,0,0,0.933864,-445.751,-1043.02)">
        <path d="M528.124,1140.72C527.958,1142.63 527.208,1143.97 526.791,1144.55C526.374,1145.13 525.291,1145.88 525.291,1144.05C525.291,1142.22 524.458,1139.97 524.124,1139.05C523.791,1138.13 523.374,1137.88 523.958,1137.3C524.541,1136.72 525.958,1134.97 526.291,1134.97C526.291,1134.97 528.291,1138.8 528.124,1140.72ZM522.124,1136.72C521.458,1137.3 520.791,1138.22 520.041,1137.8C519.291,1137.38 518.124,1137.05 517.124,1137.05C516.124,1137.05 514.541,1138.05 514.458,1137.55C514.374,1137.05 514.208,1126.55 514.208,1126.55C514.208,1126.55 513.958,1125.38 514.874,1125.47C515.791,1125.55 519.458,1125.8 521.791,1127.22C524.124,1128.63 526.041,1130.97 525.374,1132.3C524.708,1133.63 522.791,1136.13 522.124,1136.72ZM512.708,1141.05C512.041,1141.13 511.208,1141.22 509.541,1142.05C507.874,1142.88 506.874,1143.38 506.624,1143.13C506.374,1142.88 502.624,1138.22 499.791,1136.63C496.958,1135.05 495.874,1134.55 494.624,1134.05C494.624,1134.05 493.041,1132.63 494.291,1130.8C495.541,1128.97 498.208,1127.05 503.874,1125.22C509.541,1123.38 512.374,1122.47 512.624,1123.13C512.874,1123.8 512.624,1128.97 512.624,1131.88C512.624,1134.8 513.374,1140.97 512.708,1141.05ZM502.541,1145.8C501.958,1145.88 498.791,1145.13 496.874,1145.13C494.958,1145.13 493.291,1146.13 492.874,1146.05C492.458,1145.97 492.124,1143.63 492.708,1141.22C493.291,1138.8 493.874,1137.22 493.874,1137.22C493.874,1137.22 494.291,1136.22 494.708,1136.3C495.124,1136.38 497.041,1137.3 499.374,1138.88C501.708,1140.47 504.208,1142.72 504.124,1143.22C504.041,1143.72 503.124,1145.72 502.541,1145.8ZM502.312,1155.97C501.812,1156.4 498.374,1155.65 497.062,1153.53C495.749,1151.4 494.437,1148.53 494.687,1147.47C494.748,1147.21 496.999,1147.28 498.062,1147.28C499.124,1147.28 500.124,1147.34 499.999,1147.72C499.874,1148.09 500.562,1151.53 501.374,1152.78C502.187,1154.03 502.812,1155.53 502.312,1155.97ZM527.208,1132.8C527.208,1132.8 527.374,1131.47 527.041,1129.8C526.708,1128.13 523.541,1125.63 520.708,1124.55C517.874,1123.47 514.208,1123.22 514.208,1123.22L513.874,1121.88C513.541,1120.55 511.541,1120.72 510.124,1121.05C508.708,1121.38 504.541,1122.72 500.958,1123.88C497.374,1125.05 494.791,1126.8 492.458,1130.13C490.124,1133.47 493.041,1135.22 493.041,1135.22C493.041,1135.22 491.958,1136.97 491.624,1137.97C491.291,1138.97 490.624,1142.13 490.708,1145.22C490.791,1148.3 493.041,1148.05 493.041,1148.05C494.374,1152.97 496.624,1156.13 498.958,1156.88C501.291,1157.63 503.791,1157.3 504.291,1156.3C504.791,1155.3 503.15,1152.97 502.541,1151.55C501.812,1149.84 501.708,1147.8 501.708,1147.8C501.708,1147.8 502.124,1147.88 502.624,1147.88C503.124,1147.88 504.124,1147.47 504.791,1146.55C505.458,1145.63 506.041,1144.72 506.041,1144.72C506.458,1145.47 507.624,1145.22 509.124,1144.63C510.624,1144.05 512.541,1143.13 513.708,1142.88C514.874,1142.63 514.541,1140.13 514.458,1139.55C514.374,1138.97 515.958,1138.97 517.124,1138.97C518.291,1138.97 519.541,1140.05 520.374,1140.22C521.208,1140.38 521.374,1139.22 521.958,1139.22C522.541,1139.22 523.958,1141.88 524.374,1144.72C524.791,1147.55 527.041,1147.05 528.041,1145.97C529.041,1144.88 529.541,1143.13 529.874,1140.22C530.208,1137.3 527.208,1132.8 527.208,1132.8Z"/>
    </g>
</svg>
