<?xml version="1.0" encoding="UTF-8" standalone="no"?>
<!DOCTYPE svg PUBLIC "-//W3C//DTD SVG 1.1//EN" "http://www.w3.org/Graphics/SVG/1.1/DTD/svg11.dtd">
<svg width="100%" height="100%" viewBox="0 0 60 40" version="1.1" xmlns="http://www.w3.org/2000/svg" xmlns:xlink="http://www.w3.org/1999/xlink" xml:space="preserve" >
    <g transform="matrix(0.363652,0,0,0.363652,-140.439,-160.907)">
        <path d="M496.97,458.782C496.499,459.607 495.085,458.9 493.789,457.839C492.492,456.778 494.274,456.481 495.438,456.66C496.97,456.896 497.442,457.957 496.97,458.782ZM490.843,472.334C488.486,477.283 483.536,485.061 482.358,488.007C481.179,490.953 480.119,491.071 478.94,490.599C477.762,490.128 481.061,483.647 482.947,479.286C484.832,474.926 490.135,462.788 490.96,461.138C491.785,459.489 492.61,460.667 493.435,460.903C493.435,460.903 494.967,461.138 495.91,461.846C496.853,462.553 493.199,467.384 490.843,472.334ZM488.368,490.599C488.721,491.542 488.957,492.131 486.6,493.663C484.243,495.195 479.176,497.434 470.22,497.67C461.264,497.906 449.126,495.902 445.119,494.37C443.672,493.817 440.288,491.542 439.699,489.303C439.109,487.064 439.699,483.175 443.352,480.701C447.005,478.226 451.836,478.226 455.372,479.758C458.907,481.29 461.382,485.061 461.028,487.889C460.675,490.717 459.143,494.253 460.085,494.842C461.028,495.431 464.328,496.491 464.446,492.013C464.564,487.535 463.856,484.943 463.267,483.411C462.678,481.879 462.678,480.229 463.503,478.933C464.328,477.637 467.038,476.812 468.57,476.812C470.102,476.812 471.87,476.812 471.281,478.579C470.691,480.347 469.866,483.764 469.513,486.239C469.159,488.714 466.92,490.835 468.217,491.66C469.513,492.485 472.459,492.956 473.637,492.249C474.816,491.542 475.641,488.242 476.112,485.886C476.583,483.529 477.998,478.108 478.351,478.108C478.705,478.108 480.59,479.286 479.883,480.818C479.176,482.35 476.819,487.771 476.23,490.128C475.641,492.485 476.348,493.31 477.88,493.663C479.412,494.017 480.59,494.96 481.651,492.956C482.711,490.953 483.89,488.242 484.95,488.36C486.011,488.478 488.014,489.657 488.368,490.599ZM486.482,503.798C485.54,505.919 482.122,509.69 478.351,512.518C474.58,515.346 469.277,516.525 467.863,516.996C466.449,517.468 466.331,525.01 466.449,528.191C466.567,531.373 468.217,531.137 469.513,530.784C470.809,530.43 469.866,527.131 469.866,526.306C469.866,525.481 473.048,526.07 476.583,526.895C480.119,527.72 481.297,529.134 480.944,531.02C480.59,532.905 476.819,533.376 473.048,534.201C469.277,535.026 466.095,535.262 460.793,534.791C455.49,534.319 450.422,532.787 449.126,531.373C447.83,529.959 450.305,527.956 452.779,527.366C454.508,526.955 457.488,526.891 459.819,526.928C459.834,527.977 460.026,529.533 461.028,529.841C462.56,530.313 463.385,528.898 463.621,527.602C463.798,526.627 463.775,524.919 463.602,523.982C463.735,521.63 463.404,518.64 463.267,517.821C463.031,516.407 461.853,516.76 458.2,516.525C454.547,516.289 452.661,515.582 448.655,512.4C444.648,509.219 440.17,503.68 438.991,500.38C437.813,497.081 439.699,496.727 440.052,496.727C440.052,496.727 442.998,497.434 444.53,497.906C446.062,498.377 452.072,500.263 463.503,501.087C474.934,501.912 486.836,497.788 487.661,497.081C488.486,496.374 487.425,501.677 486.482,503.798ZM455.843,471.155C457.964,469.388 459.968,468.681 463.621,469.505C467.274,470.33 467.745,472.805 466.331,473.276C464.917,473.748 463.149,474.101 461.853,475.633C460.557,477.165 459.968,478.933 458.907,477.99C457.846,477.047 456.55,475.751 455.607,475.633C454.343,475.475 453.722,472.923 455.843,471.155ZM473.873,476.576C474.934,471.744 478.559,458.512 478.823,457.721C479.058,457.014 480.944,457.25 481.533,457.603C482.122,457.957 480.708,459.842 480.001,463.26C479.294,466.677 475.052,482.468 473.991,486.828C472.93,491.189 471.516,490.246 470.809,489.892C470.102,489.539 472.813,481.408 473.873,476.576ZM481.415,452.889C482.24,453.007 482.594,453.479 482.004,454.068C481.415,454.657 481.179,455.011 479.647,454.422C478.116,453.832 480.599,452.773 481.415,452.889ZM492.375,454.775C490.135,455.718 488.839,459.607 487.543,463.495C486.247,467.384 481.415,476.812 481.415,476.812C480.826,475.987 478.94,474.808 478.94,474.808C478.94,474.808 479.765,470.33 481.415,464.909C483.065,459.489 484.95,455.836 484.832,453.243C484.715,450.651 481.297,450.533 479.412,451.122C477.526,451.711 476.937,454.068 476.583,455.482C476.23,456.896 473.873,466.913 473.284,469.152C472.695,471.391 472.459,473.866 471.988,473.866C471.516,473.866 471.634,472.805 471.634,471.862C471.634,470.919 468.688,468.091 466.685,466.559C464.681,465.027 459.261,463.967 455.018,466.795C450.776,469.623 450.422,474.573 450.422,474.573C450.422,474.573 448.183,474.455 443.823,475.869C439.463,477.283 436.281,483.175 436.281,483.175C433.335,488.125 438.756,492.956 438.756,492.956C438.756,492.956 437.224,493.545 436.517,494.135C435.81,494.724 435.338,495.431 435.692,499.673C436.045,503.916 438.167,507.215 443.587,513.461C449.008,519.707 459.732,520.296 459.732,520.296L459.732,523.831C459.732,523.831 455.49,523.713 451.954,524.538C448.419,525.363 444.412,528.427 444.059,531.844C443.705,535.262 455.607,537.972 464.328,538.09C473.048,538.208 482.476,535.144 484.125,532.198C485.775,529.252 483.536,526.306 480.237,524.538C476.937,522.771 470.22,522.417 470.22,522.417L470.456,519.471C470.456,519.471 473.873,519.235 478.705,516.525C483.536,513.815 486.954,508.747 489.782,504.623C492.61,500.498 492.846,492.956 492.492,490.246C492.139,487.535 486.129,486.121 486.129,486.121C486.129,486.121 490.253,478.108 493.789,471.627C497.324,465.145 498.502,461.492 499.681,458.9C500.859,456.307 494.613,453.832 492.375,454.775ZM455.49,508.983C453.733,508.749 451.365,509.572 451.954,511.458C452.543,513.343 453.486,514.757 455.607,513.579C457.729,512.4 457.257,509.219 455.49,508.983ZM464.446,506.39C466.095,504.976 465.506,503.091 463.503,502.855C461.981,502.676 459.261,504.269 460.321,505.919C461.382,507.569 462.796,507.805 464.446,506.39ZM447.712,501.559C446.534,501.559 444.53,503.091 445.709,504.623C446.887,506.155 447.712,506.508 448.89,506.272C450.069,506.037 451.247,504.741 450.422,503.444C449.597,502.148 448.655,501.559 447.712,501.559ZM463.621,509.219C462.155,509.491 461.617,511.222 462.678,512.872C463.739,514.521 465.86,514.875 467.156,513.343C468.452,511.811 468.688,508.276 463.621,509.219ZM482.594,501.677C481.892,501.764 480.119,502.619 481.179,503.68C482.24,504.741 483.418,504.741 483.89,503.68C484.361,502.619 483.536,501.559 482.594,501.677ZM474.816,503.091C473.029,502.853 471.87,503.916 471.87,505.919C471.87,507.922 473.873,508.394 475.523,508.394C477.173,508.394 477.526,506.744 477.526,505.448C477.526,504.151 476.583,503.326 474.816,503.091Z" />
    </g>
</svg>
