<?xml version="1.0" encoding="UTF-8" standalone="no"?>
<!DOCTYPE svg PUBLIC "-//W3C//DTD SVG 1.1//EN" "http://www.w3.org/Graphics/SVG/1.1/DTD/svg11.dtd">
<svg width="100%" height="100%" viewBox="0 0 60 40" version="1.1" xmlns="http://www.w3.org/2000/svg" xmlns:xlink="http://www.w3.org/1999/xlink" xml:space="preserve">
    <g transform="matrix(0.983604,0,0,0.983604,-65.7292,-1274.64)">
        <path d="M87.386,1318.36C87.386,1316.52 87.886,1313.44 86.886,1313.44C86.636,1313.44 86.636,1315.02 86.636,1316.94C86.636,1318.86 86.886,1322.11 86.969,1323.69C87.053,1325.27 86.803,1327.02 87.386,1327.02C87.969,1327.02 88.219,1324.27 88.136,1322.86C88.053,1321.44 87.386,1320.19 87.386,1318.36ZM117.136,1319.86C116.553,1320.27 114.47,1319.77 113.47,1319.77C112.47,1319.77 112.636,1318.27 112.636,1317.44C112.636,1316.61 112.908,1316.22 113.22,1316.11C113.886,1315.86 116.136,1316.11 117.053,1316.27C117.97,1316.44 117.72,1319.44 117.136,1319.86ZM111.303,1312.44C111.22,1312.69 111.053,1314.27 110.97,1316.36C110.886,1318.44 111.053,1324.27 110.97,1327.11C110.886,1329.94 109.803,1329.44 109.303,1329.11C108.803,1328.77 109.136,1324.69 109.053,1320.61C108.97,1316.52 109.386,1314.77 108.72,1314.52C108.053,1314.27 107.553,1315.02 107.386,1316.36C107.22,1317.69 107.22,1323.44 107.22,1325.36C107.22,1327.27 107.303,1328.77 106.803,1329.36C106.303,1329.94 100.636,1329.69 96.136,1329.69C91.636,1329.69 84.636,1329.02 83.636,1328.77C82.636,1328.52 83.136,1324.94 82.969,1322.19C82.803,1319.44 82.107,1313.48 82.469,1313.27C83.053,1312.94 87.886,1312.52 88.803,1312.61C89.719,1312.69 89.553,1313.86 89.469,1315.52C89.386,1317.19 89.553,1319.69 89.469,1322.61C89.386,1325.52 89.386,1326.77 90.219,1326.77C91.053,1326.77 90.969,1323.36 90.719,1320.44C90.469,1317.52 90.969,1313.11 91.053,1312.52C91.136,1311.94 102.053,1311.52 103.22,1311.36C104.386,1311.19 104.22,1312.94 104.386,1316.52C104.553,1320.11 104.553,1321.94 104.97,1322.19C105.386,1322.44 105.97,1321.86 106.22,1319.69C106.47,1317.52 106.22,1311.86 106.47,1311.27C106.72,1310.69 109.72,1310.69 110.47,1311.27C111.22,1311.86 111.386,1312.19 111.303,1312.44ZM83.053,1308.19C84.136,1307.86 90.469,1306.27 96.553,1306.19C102.636,1306.11 110.386,1305.52 110.886,1306.86C111.376,1308.16 111.068,1309.78 111.055,1309.85C111.063,1309.77 110.874,1309.29 105.053,1309.52C98.719,1309.77 92.886,1310.27 88.469,1310.69C84.053,1311.11 82.219,1311.02 82.219,1311.02C82.219,1311.02 81.969,1308.52 83.053,1308.19ZM96.053,1300.02L96.053,1304.61L95.719,1304.61L95.553,1299.94L96.053,1300.02ZM97.303,1302.61C97.303,1301.77 97.553,1299.94 97.553,1299.94C97.553,1299.94 97.969,1301.52 97.969,1302.44C97.969,1303.36 98.053,1304.27 97.636,1304.36C97.219,1304.44 97.303,1303.44 97.303,1302.61ZM81.136,1321.02C80.969,1321.36 78.219,1321.02 76.553,1320.77C74.886,1320.52 75.719,1318.69 75.719,1317.61C75.719,1316.52 76.303,1316.27 77.386,1316.27C78.469,1316.27 80.886,1316.44 80.886,1316.44C81.386,1316.36 81.303,1320.69 81.136,1321.02ZM116.886,1315.02C115.47,1314.86 112.97,1315.19 112.803,1314.86C112.636,1314.52 113.053,1309.61 112.47,1306.69C111.886,1303.77 108.386,1304.36 106.386,1304.36C104.386,1304.36 99.053,1304.19 99.053,1304.19C99.053,1304.19 98.719,1303.02 98.886,1302.44C99.053,1301.86 99.719,1302.19 100.553,1301.61C101.386,1301.02 101.136,1299.77 99.719,1299.27C98.303,1298.77 94.219,1298.77 92.469,1299.44C90.719,1300.11 90.469,1301.69 91.886,1302.27C93.303,1302.86 93.219,1304.27 93.136,1304.77C93.053,1305.27 90.386,1305.27 88.803,1305.36C87.219,1305.44 83.136,1306.27 83.136,1306.27C80.969,1306.86 80.386,1308.44 80.636,1309.86C80.886,1311.27 80.803,1315.52 80.803,1315.52C80.803,1315.52 79.136,1315.52 76.969,1315.36C74.803,1315.19 74.386,1317.52 74.469,1320.02C74.553,1322.52 79.719,1321.86 80.636,1322.02C81.553,1322.19 81.136,1327.27 81.303,1328.86C81.469,1330.44 82.886,1331.61 87.136,1331.61C91.386,1331.61 109.636,1331.36 111.136,1331.02C112.636,1330.69 112.72,1327.44 112.886,1326.11C113.053,1324.77 112.636,1320.94 112.886,1320.94C113.136,1320.94 117.136,1320.94 117.97,1320.86C118.803,1320.77 118.72,1319.36 118.803,1317.44C118.886,1315.52 118.303,1315.19 116.886,1315.02Z"/>
    </g>
</svg>
