<?xml version="1.0" encoding="UTF-8" standalone="no"?>
<!DOCTYPE svg PUBLIC "-//W3C//DTD SVG 1.1//EN" "http://www.w3.org/Graphics/SVG/1.1/DTD/svg11.dtd">
<svg width="100%" height="100%" viewBox="0 0 60 40" version="1.1" xmlns="http://www.w3.org/2000/svg" xmlns:xlink="http://www.w3.org/1999/xlink" xml:space="preserve">
    <g transform="matrix(0.598549,0,0,0.598549,6.41654,3.49074)">
        <path d="M74.1,36.7C74,36.1 73.9,35.1 73.7,33.9C72.9,28 71.2,15.8 68.7,10.1C66.2,4.5 64.7,2.6 61.9,2.2C59.9,1.9 58.2,2.9 57.3,3.6C56.2,2.1 54.7,0.9 51.4,0.4C50,0.1 47.7,0 44.4,0C39.2,0 33.3,0.3 32.5,0.3C32.2,0.3 31.6,0.2 30.8,0.2C28.8,0.2 25.3,0.6 22,2.9C21.4,2.5 20.5,2.2 19.5,2.1C18,2 16.5,2.6 15.1,3.9C11.2,7.4 0.3,29.4 0,37.1C-0.1,40.8 0.7,43.4 2.5,44.8C3.3,45.4 4.4,45.8 5.4,45.8C5.9,45.8 6.4,45.7 6.9,45.6C8.6,45.1 11.8,43.2 13.8,40.6C13.5,45 13.4,52.4 15.8,54C16.5,54.5 18.3,55.4 20.1,55.7C23.5,56.1 29.2,56.4 35.5,56.4C39,56.4 42.1,56.3 43.6,56.2C44.8,56.1 46.6,56 48.7,55.8C58.4,55.1 62.6,54.8 63.5,54.1C64.2,53.6 64.6,52.5 64.2,44C65.1,45 66.4,45.8 68.1,45.8C68.3,45.8 68.5,45.8 68.7,45.8C70.3,45.6 71.7,44.8 72.7,43.5C74,41.7 74.5,39.2 74.1,36.7ZM32.2,2.3C32.3,2.3 32.3,2.3 32.4,2.3C32.5,2.3 38.8,2 44.3,2C47.5,2 49.8,2.1 51,2.3C54.1,2.8 55,3.9 55.8,5C56,5.3 56.2,5.6 56.4,6C56.6,6.3 56.7,6.5 56.9,6.8C57.8,8.1 59.5,18.2 60.4,25C60.3,24.9 60.2,24.8 60.2,24.7C58.3,22.3 52.6,22.1 50.2,22.1C49.8,22.1 48,22.1 45.6,22.2C43.8,22.2 41.7,22.3 39.4,22.4C39,22.4 38.6,22.4 38.1,22.4C32.9,22.5 27.3,22.6 23.9,22.6C20.4,22.6 18.4,23.4 17.1,24.3C18.1,16.2 19.7,7.7 21.8,5.6C22.2,5.8 22.7,5.8 23,5.5C23.3,5.2 23.4,4.8 23.3,4.4C26,2.6 28.9,2.3 30.5,2.3C31.6,2.2 32.2,2.3 32.2,2.3ZM30.8,25.1C30.8,25 30.7,25 30.7,24.9C32.7,24.5 35.6,24.3 38.4,24.3L41.7,24.3C44.1,24.3 45.8,24.4 46.9,24.5C44.2,26.8 38.2,31.3 36.7,31.8C35.7,31.1 32.5,27.5 30.8,25.1ZM41.1,40.4C38.6,45.2 37,44.9 35.2,44.5C33.8,44.2 33.1,41.5 33,40.6L33,40.5C34.6,39.2 35.8,37.5 36.6,35.8C37.3,37.3 38.7,39.1 41.1,40.4ZM14.1,37.3C13.7,37.3 13.3,37.5 13.1,37.9C12,40.6 8.1,43.1 6.4,43.6C5.7,43.8 4.7,43.8 3.8,43.2C2.5,42.2 1.9,40.2 2,37.2C2.3,30 12.8,8.7 16.4,5.4C18,4 19.3,4 20.3,4.4C16,9.6 14.4,31.9 14.1,37.3ZM62.2,52.4C60.6,52.9 52.8,53.4 48.5,53.7C46.4,53.8 44.6,54 43.4,54.1C42,54.2 38.9,54.3 35.5,54.3C29.3,54.3 23.7,54.1 20.4,53.7C18.9,53.5 17.5,52.7 17,52.4C15.7,51.5 15.5,44.4 16.1,38.4C16.2,35.9 16.5,32.2 16.9,28.1C17.2,28 17.4,27.7 17.4,27.4C17.4,27.3 17.9,24.5 24.1,24.6C25.4,24.6 26.9,24.6 28.7,24.6C28.6,25.1 28.8,25.7 29.2,26.4C29.7,27.1 33.3,31.8 35.4,33.3C34.9,35.3 33.5,37.8 31.5,39.3C29.7,40.6 26,39.4 24.8,38.8C24.3,38.6 23.7,38.8 23.5,39.3C23.3,39.8 23.5,40.4 24,40.6C24.2,40.7 28.2,42.5 31.3,41.6C31.6,43 32.5,46.1 35,46.6C35.6,46.7 36.2,46.8 36.8,46.8C39,46.8 40.9,45.6 43.1,41.4C44.7,42.1 46.7,42.5 49,42.7L49.1,42.7C49.6,42.7 50.1,42.3 50.1,41.8C50.1,41.2 49.7,40.8 49.2,40.7C46.6,40.5 44.6,40 43.1,39.2C39.6,37.5 38.3,34.9 37.9,33.5C41.4,31.9 49.5,25.1 49.9,24.6C50,24.5 50.1,24.3 50.1,24.1C50.3,24.1 50.4,24.1 50.5,24.1C53.9,24.1 57.9,24.7 59,26C60.4,27.8 61.4,29 61.4,30.4C61.4,30.6 61.4,30.8 61.4,30.9C61.4,31.5 61.5,32.7 61.6,34.2C61.8,38.7 62.7,50.3 62.2,52.4ZM71.1,42.3C70.4,43.2 69.5,43.7 68.5,43.8C65.7,44.1 64.3,40.6 64.3,40.5C64.2,40.3 64.1,40.2 63.9,40.1C63.8,38.3 63.6,36.4 63.5,34.1C63.4,32.5 63.3,31.4 63.3,30.8C63.3,30.7 63.3,30.5 63.3,30.2L63.3,30.1C62.9,25.9 60.4,8.1 58.8,5.7C58.7,5.6 58.6,5.4 58.6,5.3C59,4.9 60.3,4 61.8,4.2C63.2,4.4 64.5,5.1 67,11C69.4,16.4 71,28.5 71.9,34.3C72.1,35.5 72.2,36.5 72.3,37.1C72.5,39 72.1,41 71.1,42.3Z" />
    </g>
    <g transform="matrix(0.598549,0,0,0.598549,6.41654,3.544)">
        <path d="M50.3,16.7C50.6,16.8 50.9,16.8 51.2,16.8C52.1,16.8 53.4,16.4 53.8,14.4C53.9,13.9 53.8,13.4 53.4,12.9C52.8,12.1 51.5,11.5 50.4,11.5C49.5,11.5 48.7,11.8 48.2,12.4C48,12.6 47.9,12.8 47.9,13.1C47.9,14.3 48.4,16.2 50.3,16.7ZM50.3,13.6C50.9,13.6 51.5,14 51.7,14.2C51.5,14.8 51.3,14.8 51.1,14.8C51,14.8 50.8,14.8 50.6,14.7C50.1,14.6 49.9,14 49.8,13.6C50,13.6 50.2,13.6 50.3,13.6Z"/>
    </g>
    <g transform="matrix(0.598549,0,0,0.598549,6.41654,3.544)">
        <path d="M27.3,17.4C27.8,17.4 28.2,17.2 28.5,16.9C29.2,16.2 30.1,14.7 29.8,13.5C29.7,13 29.3,12.5 28.8,12.4C28.5,12.3 28,12.2 27.5,12.2C26.7,12.2 26,12.3 26,12.3C25.8,12.3 24.7,12.5 24.3,13.4C24.2,13.7 24,14.3 24.4,15.1C24.8,15.6 25.9,17.4 27.3,17.4ZM26.5,14.3C26.5,14.3 27.1,14.2 27.7,14.2C27.8,14.2 27.9,14.2 28,14.2C27.9,14.5 27.7,15 27.4,15.4C27.2,15.3 26.9,15 26.5,14.4C26.4,14.3 26.5,14.3 26.5,14.3Z"/>
    </g>
    <g transform="matrix(0.598549,0,0,0.598549,6.41654,3.544)">
        <path d="M32.6,9.5L33.2,9C33.2,10.2 33.3,11.4 33.6,12C33.8,12.5 34.4,12.8 35,12.8C35.7,12.7 37,12 37.9,11.1C38.6,13.1 38.9,13.8 39.5,14.1C39.7,14.2 39.8,14.2 40,14.2C40.2,14.2 40.5,14.1 40.7,14C41.3,13.6 41.8,11.9 42.1,10.4C42.3,10.6 42.6,10.8 42.8,11C43.3,11.3 43.8,11.2 44.2,10.9C44.7,10.5 44.9,9.4 45,8.4C45.8,9 46.3,9.2 46.7,9.2C47.3,9.2 47.7,8.8 47.7,8.2C47.7,7.7 47.3,7.3 46.9,7.2C46.6,7.1 45.7,6.4 45.4,6.2C44.6,5.6 44.1,5.3 43.5,5.7C43.2,5.9 43,6.3 43.1,6.7C43.1,7 43.1,7.7 43,8.4C42.9,8.3 42.8,8.1 42.7,8C42.2,7.3 41.7,6.7 40.9,7.1C40.8,7.2 40.1,7.5 40.3,8.4C40.3,8.8 40.1,9.9 39.9,10.9C39.9,10.8 39.8,10.6 39.8,10.5C39.2,8.8 39,8.2 38.2,8.3C37.8,8.3 37.4,8.6 37.3,9C37.1,9.4 36.1,10.2 35.4,10.6C35.3,9.7 35.3,8.3 35.3,7C35.3,6.6 35.1,6.3 34.7,6.1C34.3,5.9 33.9,6 33.6,6.2L31.4,8C31,8.4 30.9,9 31.3,9.4C31.6,9.8 32.2,9.8 32.6,9.5Z"/>
    </g>
</svg>
