<?xml version="1.0" encoding="UTF-8" standalone="no"?>
<!DOCTYPE svg PUBLIC "-//W3C//DTD SVG 1.1//EN" "http://www.w3.org/Graphics/SVG/1.1/DTD/svg11.dtd">
<svg width="100%" height="100%" viewBox="0 0 60 40" version="1.1" xmlns="http://www.w3.org/2000/svg" xmlns:xlink="http://www.w3.org/1999/xlink" xml:space="preserve">
    <g transform="matrix(0.843638,0,0,0.843638,-398.001,-1020.96)">
        <path d="M505.037,1233.18C505.537,1232.77 508.454,1231.77 510.621,1232.02C512.787,1232.27 515.787,1232.68 516.037,1233.77C516.287,1234.85 515.62,1239.27 515.537,1240.43C515.453,1241.6 515.537,1242.77 512.953,1243.02C510.371,1243.27 509.704,1243.43 508.037,1243.1C506.371,1242.77 505.204,1242.6 505.204,1240.68C505.204,1238.77 504.954,1236.77 504.704,1235.43C504.704,1235.43 504.537,1233.6 505.037,1233.18ZM504.371,1243.6C505.371,1244.43 508.871,1244.85 512.62,1244.68C516.37,1244.52 517.37,1242.68 517.37,1241.52C517.37,1240.35 517.37,1236.68 517.62,1234.77C517.87,1232.85 517.537,1232.02 516.537,1231.68C515.537,1231.35 513.12,1230.27 510.537,1230.27C507.954,1230.27 505.121,1230.85 504.121,1231.35C503.121,1231.85 503.211,1233.96 503.454,1234.93C503.621,1235.6 503.287,1236.1 503.287,1238.77C503.287,1241.43 503.371,1242.77 504.371,1243.6ZM526.787,1227.6C525.954,1228.27 525.121,1228.6 524.203,1227.93C523.287,1227.27 522.287,1225.6 520.037,1225.77C517.787,1225.93 517.62,1227.52 516.37,1227.68C515.12,1227.85 513.953,1227.27 513.037,1226.77C512.12,1226.27 511.121,1224.93 509.621,1225.27C508.121,1225.6 507.287,1226.93 505.787,1227.1C504.287,1227.27 503.204,1227.77 501.704,1227.1C500.204,1226.43 500.121,1225.77 498.287,1226.1C496.454,1226.43 495.121,1227.35 494.454,1227.68C493.787,1228.02 492.371,1228.35 493.037,1227.02C493.704,1225.68 494.371,1225.85 495.037,1225.52C495.704,1225.18 496.537,1224.35 496.537,1224.35C496.871,1223.77 497.204,1223.1 498.621,1222.85C500.037,1222.6 501.204,1223.18 503.371,1222.35C505.537,1221.52 506.537,1221.6 509.037,1221.93C511.537,1222.27 513.62,1222.6 515.37,1222.77C517.12,1222.93 520.787,1223.52 521.703,1223.6C522.62,1223.68 523.037,1223.6 523.203,1224.27C523.37,1224.93 524.537,1226.52 525.454,1226.77C526.371,1227.02 527.621,1226.93 526.787,1227.6ZM498.871,1217.27C499.704,1217.1 503.787,1216.18 508.454,1216.18C513.12,1216.18 517.203,1216.1 519.787,1216.68C522.37,1217.27 524.037,1217.35 523.537,1219.85C523.037,1222.35 523.037,1222.77 523.037,1222.77C523.037,1222.77 517.453,1222.02 515.037,1221.77C512.62,1221.52 510.871,1220.6 508.121,1220.68C505.371,1220.77 504.204,1221.27 501.954,1221.43C499.704,1221.6 497.287,1222.1 497.204,1221.6C497.121,1221.1 496.371,1218.27 496.371,1218.27C496.537,1217.85 498.037,1217.43 498.871,1217.27ZM526.037,1225.6C524.954,1225.52 524.787,1225.1 524.371,1224.18C523.953,1223.27 524.704,1221.18 525.371,1219.35C526.037,1217.52 524.871,1216.18 523.453,1215.43C522.037,1214.68 519.287,1214.18 515.453,1214.1C511.621,1214.02 505.454,1214.02 502.621,1214.18C499.787,1214.35 496.454,1215.35 494.704,1216.27C492.954,1217.18 495.037,1219.35 495.787,1221.35C496.537,1223.35 496.287,1223.27 496.037,1223.68C496.037,1223.68 495.954,1224.27 494.454,1224.68C492.954,1225.1 492.121,1225.6 492.121,1227.43C492.121,1229.27 493.371,1229.18 494.287,1229.02C495.204,1228.85 496.704,1227.18 497.871,1226.93C499.037,1226.68 501.621,1228.02 503.621,1228.6C505.621,1229.18 508.537,1226.85 509.537,1226.27C510.537,1225.68 513.537,1228.35 515.12,1228.77C516.703,1229.18 519.203,1227.6 519.953,1227.1C520.703,1226.6 521.62,1227.1 522.037,1227.52C522.453,1227.93 522.12,1228.85 521.87,1232.68C521.62,1236.52 521.453,1244.35 521.203,1247.18C520.953,1250.02 518.203,1250.1 516.453,1250.27C514.703,1250.43 507.787,1250.85 503.871,1250.43C499.954,1250.02 498.787,1249.02 497.954,1247.85C497.121,1246.68 497.371,1237.02 497.621,1233.85C497.871,1230.68 498.037,1228.77 496.787,1228.35C495.537,1227.93 496.287,1229.43 496.121,1231.77C495.954,1234.1 495.621,1245.35 496.121,1248.52C496.621,1251.68 502.287,1252.35 507.287,1252.43C512.287,1252.52 516.703,1252.52 520.12,1251.52C523.537,1250.52 523.203,1246.68 523.203,1242.18C523.203,1237.68 523.787,1230.02 523.87,1229.52C523.953,1229.02 525.037,1229.52 526.204,1229.52C527.371,1229.52 528.204,1228.18 528.454,1227.18C528.704,1226.18 527.121,1225.68 526.037,1225.6Z"/>
    </g>
</svg>
