<svg width="100%" height="100%" viewBox="0 0 500 400" version="1.1" xmlns="http://www.w3.org/2000/svg" xmlns:xlink="http://www.w3.org/1999/xlink" xml:space="preserve">
    <g id="logo__whole">
        <g id="logo__circle">
            <circle cx="280" cy="200" r="280" />
        </g>
        <g transform="matrix(-4.62451,0,0,4.20968,503.131,-11.8808)" id="logo__leaf">
            <path d="M59.725,15.495L57.822,20.077C57.822,20.077 35.592,0.635 7.526,6.664C1.224,35.003 20.045,57.686 20.045,57.686L15.435,59.505C28.496,85.314 43.199,84.635 43.199,84.635L39.543,86.284C39.543,86.284 64.239,104.08 83.23,89.898L31.223,30.398L89.386,83.769C103.741,64.774 86.074,40.074 86.074,40.074L84.362,43.696C84.362,43.696 85.3,29.011 59.725,15.495Z" style="fill-rule:nonzero;"/>
        </g>
        <g transform="matrix(5.19102,0,0,5.19102,-833.347,-1257.21)" id="logo__text">
            <text x="199.682px" y="279.367px" style="font-family:'Merriweather-Black', 'Merriweather';font-weight:900;font-size:12px;">Vegan</text>
            <text x="175.61px" y="291.367px" style="font-family:'Merriweather-Black', 'Merriweather';font-weight:900;font-size:12px;">Cookbook</text>
        </g>
    </g>
</svg>
